<svg width="25" height="25" viewBox="0 0 25 25" fill="none" xmlns="http://www.w3.org/2000/svg">
    <path
        d="M21.4086 11.4859H19.9086V7.4859C19.9086 6.95547 19.6979 6.44676 19.3228 6.07169C18.9477 5.69661 18.439 5.4859 17.9086 5.4859H13.9086V3.9859C13.9086 3.32286 13.6452 2.68697 13.1763 2.21813C12.7075 1.74929 12.0716 1.4859 11.4086 1.4859C10.7455 1.4859 10.1096 1.74929 9.6408 2.21813C9.17196 2.68697 8.90857 3.32286 8.90857 3.9859V5.4859H4.90857C4.37814 5.4859 3.86943 5.69661 3.49436 6.07169C3.11928 6.44676 2.90857 6.95547 2.90857 7.4859V11.2859H4.40857C5.90857 11.2859 7.10857 12.4859 7.10857 13.9859C7.10857 15.4859 5.90857 16.6859 4.40857 16.6859H2.90857V20.4859C2.90857 21.0163 3.11928 21.525 3.49436 21.9001C3.86943 22.2752 4.37814 22.4859 4.90857 22.4859H8.70857V20.9859C8.70857 19.4859 9.90857 18.2859 11.4086 18.2859C12.9086 18.2859 14.1086 19.4859 14.1086 20.9859V22.4859H17.9086C18.439 22.4859 18.9477 22.2752 19.3228 21.9001C19.6979 21.525 19.9086 21.0163 19.9086 20.4859V16.4859H21.4086C22.0716 16.4859 22.7075 16.2225 23.1763 15.7537C23.6452 15.2848 23.9086 14.6489 23.9086 13.9859C23.9086 13.3229 23.6452 12.687 23.1763 12.2181C22.7075 11.7493 22.0716 11.4859 21.4086 11.4859Z"
        fill="#616368" />
</svg>